<svg id="visual" viewBox="0 0 900 600" width="900" height="600" xmlns="http://www.w3.org/2000/svg" xmlns:xlink="http://www.w3.org/1999/xlink" version="1.1"><path d="M0 92L21.5 101C43 110 86 128 128.8 126.2C171.7 124.3 214.3 102.7 257.2 115C300 127.3 343 173.7 385.8 184.2C428.7 194.7 471.3 169.3 514.2 151.3C557 133.3 600 122.7 642.8 118.8C685.7 115 728.3 118 771.2 113C814 108 857 95 878.5 88.5L900 82L900 0L878.5 0C857 0 814 0 771.2 0C728.3 0 685.7 0 642.8 0C600 0 557 0 514.2 0C471.3 0 428.7 0 385.8 0C343 0 300 0 257.2 0C214.3 0 171.7 0 128.8 0C86 0 43 0 21.5 0L0 0Z" fill="#F1F5F0" stroke-linecap="round" stroke-linejoin="miter"></path></svg>